<?xml version="1.0" encoding="UTF-8"?>
<svg width="12px" height="12px" viewBox="0 0 12 12" version="1.1" xmlns="http://www.w3.org/2000/svg" xmlns:xlink="http://www.w3.org/1999/xlink">
    <!-- Generator: Sketch 55.2 (78181) - https://sketchapp.com -->
    <title>Shape</title>
    <desc>Created with Sketch.</desc>
    <g id="Page-1" stroke="none" stroke-width="1" fill="none" fill-rule="evenodd">
        <g id="1.2_STP_Emailer2" transform="translate(-167.000000, -827.000000)" fill="#1D1D1D" fill-rule="nonzero">
            <g id="Email-Content" transform="translate(133.000000, 30.000000)">
                <g id="Group-4" transform="translate(30.000000, 716.000000)">
                    <g id="Signature">
                        <g id="baseline-phone-24px" transform="translate(4.000000, 81.000000)">
                            <path d="M2.41333333,5.19333333 C3.37333333,7.08 4.92,8.62 6.80666667,9.58666667 L8.27333333,8.12 C8.45333333,7.94 8.72,7.88 8.95333333,7.96 C9.7,8.20666667 10.5066667,8.34 11.3333333,8.34 C11.7,8.34 12,8.64 12,9.00666667 L12,11.3333333 C12,11.7 11.7,12 11.3333333,12 C5.07333333,12 0,6.92666667 0,0.666666667 C0,0.3 0.3,0 0.666666667,0 L3,0 C3.36666667,0 3.66666667,0.3 3.66666667,0.666666667 C3.66666667,1.5 3.8,2.3 4.04666667,3.04666667 C4.12,3.28 4.06666667,3.54 3.88,3.72666667 L2.41333333,5.19333333 Z" id="Shape"></path>
                        </g>
                    </g>
                </g>
            </g>
        </g>
    </g>
</svg>