<?xml version="1.0" encoding="UTF-8"?>
<svg width="28px" height="28px" viewBox="0 0 28 28" version="1.1" xmlns="http://www.w3.org/2000/svg" xmlns:xlink="http://www.w3.org/1999/xlink">
    <!-- Generator: Sketch 55.2 (78181) - https://sketchapp.com -->
    <title>Group 6</title>
    <desc>Created with Sketch.</desc>
    <defs>
        <path d="M7.09606154,0.0452179028 C6.94361709,0.0452179028 6.61163761,0.0498107159 6.35489915,0.0588542965 L6.35489915,0.0588542965 C5.73152821,0.0807766933 4.92804786,0.128977557 4.56285128,0.201941733 L4.56285128,0.201941733 C4.0054359,0.313305615 3.47894017,0.482198033 3.04113504,0.702889808 L3.04113504,0.702889808 C2.52670085,0.962218031 2.06577778,1.29313732 1.66765128,1.68622531 L1.66765128,1.68622531 C1.26866325,2.08021292 0.932854701,2.53670067 0.669654701,3.04631354 L0.669654701,3.04631354 C0.447186325,3.477091 0.276553846,3.99470578 0.163500855,4.54304979 L0.163500855,4.54304979 C0.0883076923,4.90796537 0.0385777778,5.70877206 0.0160820513,6.32941737 L0.0160820513,6.32941737 C0.00684444444,6.58311111 0.0022017094,6.91142623 0.0022017094,7.06284702 L0.0022017094,7.06284702 L0,20.6791649 C0,20.8299702 0.00459487179,21.15838 0.0137367521,21.4123105 L0.0137367521,21.4123105 C0.0359452991,22.0290259 0.0846700855,22.8238666 0.15842735,23.1851364 L0.15842735,23.1851364 C0.270953846,23.736558 0.441682051,24.2573925 0.664820513,24.6904427 L0.664820513,24.6904427 C0.926919658,25.1993454 1.2614359,25.6553596 1.65884444,26.0492052 L1.65884444,26.0492052 C2.05711453,26.4438557 2.51851624,26.7760534 3.03371624,27.0364706 L3.03371624,27.0364706 C3.46917607,27.2565469 3.99236923,27.4253446 4.54662564,27.5371346 L4.54662564,27.5371346 C4.91555556,27.6115666 5.72511453,27.6607618 6.35245812,27.6830156 L6.35245812,27.6830156 C6.6089094,27.6921539 6.94079316,27.6967467 7.09385983,27.6967467 L7.09385983,27.6967467 L20.8581812,27.6989247 C21.0106256,27.6989247 21.342653,27.6943793 21.5993436,27.6853357 L21.5993436,27.6853357 C22.2227145,27.6634133 23.0262427,27.6151651 23.3914393,27.5422009 L23.3914393,27.5422009 C23.9488547,27.430837 24.4753504,27.2619446 24.9131077,27.0413002 L24.9131077,27.0413002 C25.4275419,26.7819246 25.8885128,26.4510053 26.2865915,26.0579173 L26.2865915,26.0579173 C26.6855316,25.6639297 27.021388,25.207442 27.284588,24.6978291 L27.284588,24.6978291 C27.5070564,24.2670043 27.6776889,23.7494842 27.7907419,23.2011402 L27.7907419,23.2011402 C27.8659829,22.8362246 27.915665,22.0353706 27.9381607,21.4147726 L27.9381607,21.4147726 C27.9473504,21.1610789 27.952041,20.8327638 27.952041,20.6812956 L27.952041,20.6812956 L27.9542427,7.32686275 L27.9542427,7.03832045 C27.9537641,6.87799813 27.9491214,6.57165275 27.940506,6.33183215 L27.940506,6.33183215 C27.9183453,5.71511677 27.8696205,4.920276 27.7958154,4.55900627 L27.7958154,4.55900627 C27.683241,4.0075846 27.5125607,3.48675011 27.2894701,3.05369992 L27.2894701,3.05369992 C27.0273231,2.54479728 26.6928068,2.08878302 26.2954462,1.6949848 L26.2954462,1.6949848 C25.8971761,1.30033431 25.4357265,0.968089257 24.9205744,0.707719364 L24.9205744,0.707719364 C24.4851145,0.487595772 23.9618256,0.318798052 23.4076171,0.206960684 L23.4076171,0.206960684 C23.0386393,0.132623399 22.2291761,0.0834282143 21.6017846,0.0611743774 L21.6017846,0.0611743774 C21.3452855,0.0520360996 21.0134496,0.0474432865 20.8603829,0.0474432865 L20.8603829,0.0474432865 L7.09606154,0.0452179028 Z" id="path-1"></path>
        <linearGradient x1="50.0000371%" y1="100%" x2="50.0000371%" y2="4.47225813e-05%" id="linearGradient-3">
            <stop stop-color="#24CF42" offset="0%"></stop>
            <stop stop-color="#60FD7C" offset="100%"></stop>
        </linearGradient>
    </defs>
    <g id="Page-1" stroke="none" stroke-width="1" fill="none" fill-rule="evenodd">
        <g id="1.2_STP_Emailer2" transform="translate(-208.000000, -493.000000)">
            <g id="Email-Content" transform="translate(133.000000, 30.000000)">
                <g id="Group-9" transform="translate(29.000000, 279.000000)">
                    <g id="Group-10" transform="translate(0.000000, 130.000000)">
                        <g id="Group-5" transform="translate(46.000000, 0.000000)">
                            <g id="Group-2" transform="translate(0.000000, 54.000000)">
                                <g id="Group-6">
                                    <g id="Group-3">
                                        <mask id="mask-2" fill="white">
                                            <use xlink:href="#path-1"></use>
                                        </mask>
                                        <g id="Clip-2"></g>
                                        <path d="M7.09606154,0.0452179028 C6.94361709,0.0452179028 6.61163761,0.0498107159 6.35489915,0.0588542965 L6.35489915,0.0588542965 C5.73152821,0.0807766933 4.92804786,0.128977557 4.56285128,0.201941733 L4.56285128,0.201941733 C4.0054359,0.313305615 3.47894017,0.482198033 3.04113504,0.702889808 L3.04113504,0.702889808 C2.52670085,0.962218031 2.06577778,1.29313732 1.66765128,1.68622531 L1.66765128,1.68622531 C1.26866325,2.08021292 0.932854701,2.53670067 0.669654701,3.04631354 L0.669654701,3.04631354 C0.447186325,3.477091 0.276553846,3.99470578 0.163500855,4.54304979 L0.163500855,4.54304979 C0.0883076923,4.90796537 0.0385777778,5.70877206 0.0160820513,6.32941737 L0.0160820513,6.32941737 C0.00684444444,6.58311111 0.0022017094,6.91142623 0.0022017094,7.06284702 L0.0022017094,7.06284702 L0,20.6791649 C0,20.8299702 0.00459487179,21.15838 0.0137367521,21.4123105 L0.0137367521,21.4123105 C0.0359452991,22.0290259 0.0846700855,22.8238666 0.15842735,23.1851364 L0.15842735,23.1851364 C0.270953846,23.736558 0.441682051,24.2573925 0.664820513,24.6904427 L0.664820513,24.6904427 C0.926919658,25.1993454 1.2614359,25.6553596 1.65884444,26.0492052 L1.65884444,26.0492052 C2.05711453,26.4438557 2.51851624,26.7760534 3.03371624,27.0364706 L3.03371624,27.0364706 C3.46917607,27.2565469 3.99236923,27.4253446 4.54662564,27.5371346 L4.54662564,27.5371346 C4.91555556,27.6115666 5.72511453,27.6607618 6.35245812,27.6830156 L6.35245812,27.6830156 C6.6089094,27.6921539 6.94079316,27.6967467 7.09385983,27.6967467 L7.09385983,27.6967467 L20.8581812,27.6989247 C21.0106256,27.6989247 21.342653,27.6943793 21.5993436,27.6853357 L21.5993436,27.6853357 C22.2227145,27.6634133 23.0262427,27.6151651 23.3914393,27.5422009 L23.3914393,27.5422009 C23.9488547,27.430837 24.4753504,27.2619446 24.9131077,27.0413002 L24.9131077,27.0413002 C25.4275419,26.7819246 25.8885128,26.4510053 26.2865915,26.0579173 L26.2865915,26.0579173 C26.6855316,25.6639297 27.021388,25.207442 27.284588,24.6978291 L27.284588,24.6978291 C27.5070564,24.2670043 27.6776889,23.7494842 27.7907419,23.2011402 L27.7907419,23.2011402 C27.8659829,22.8362246 27.915665,22.0353706 27.9381607,21.4147726 L27.9381607,21.4147726 C27.9473504,21.1610789 27.952041,20.8327638 27.952041,20.6812956 L27.952041,20.6812956 L27.9542427,7.32686275 L27.9542427,7.03832045 C27.9537641,6.87799813 27.9491214,6.57165275 27.940506,6.33183215 L27.940506,6.33183215 C27.9183453,5.71511677 27.8696205,4.920276 27.7958154,4.55900627 L27.7958154,4.55900627 C27.683241,4.0075846 27.5125607,3.48675011 27.2894701,3.05369992 L27.2894701,3.05369992 C27.0273231,2.54479728 26.6928068,2.08878302 26.2954462,1.6949848 L26.2954462,1.6949848 C25.8971761,1.30033431 25.4357265,0.968089257 24.9205744,0.707719364 L24.9205744,0.707719364 C24.4851145,0.487595772 23.9618256,0.318798052 23.4076171,0.206960684 L23.4076171,0.206960684 C23.0386393,0.132623399 22.2291761,0.0834282143 21.6017846,0.0611743774 L21.6017846,0.0611743774 C21.3452855,0.0520360996 21.0134496,0.0474432865 20.8603829,0.0474432865 L20.8603829,0.0474432865 L7.09606154,0.0452179028 Z" id="Fill-1" fill="url(#linearGradient-3)" mask="url(#mask-2)"></path>
                                    </g>
                                    <path d="M18.624516,15.3524562 C18.3733757,15.2273517 17.1386747,14.6226878 16.9084386,14.5393008 C16.6782507,14.4559138 16.5108721,14.4142443 16.3433969,14.6644534 C16.1760183,14.9146144 15.6946901,15.4776088 15.5482157,15.6443348 C15.4017413,15.8112049 15.2552669,15.8320637 15.0041265,15.7069111 C14.7529862,15.5818065 13.9438044,15.3178999 12.9845757,14.4663912 C12.2380101,13.8037169 11.7339431,12.9852266 11.5874687,12.7350176 C11.4409943,12.4847604 11.571875,12.3495149 11.6976383,12.224891 C11.8105597,12.1129553 11.9487304,11.9330124 12.0743005,11.7870491 C12.1998707,11.6410858 12.2417274,11.5368401 12.3253926,11.3700661 C12.4091061,11.203244 12.3672976,11.0572807 12.3044884,10.9321762 C12.2417274,10.8070716 11.739495,9.57688508 11.5301631,9.07646695 C11.3263349,8.58912159 11.1193203,8.65506221 10.9651697,8.6474204 C10.8188402,8.64016309 10.6512201,8.63862512 10.4837932,8.63862512 C10.3164146,8.63862512 10.0443218,8.70115335 9.8141339,8.95136242 C9.58394605,9.20157148 8.93519094,9.80628344 8.93519094,11.0364219 C8.93519094,12.2666085 9.83503813,13.4550775 9.96065658,13.6218996 C10.0862268,13.7887217 11.7314809,16.313161 14.2507055,17.3958463 C14.8498794,17.6533127 15.3177382,17.807062 15.6824276,17.9223138 C16.2840637,18.1124939 16.831484,18.0856274 17.2641966,18.0213209 C17.7466835,17.9495648 18.7500862,17.416657 18.9593699,16.8328519 C19.1686052,16.2490467 19.1686052,15.7486286 19.1058443,15.6443348 C19.043035,15.5401371 18.8756081,15.4776088 18.624516,15.3524562 M14.0422425,21.5790862 L14.0388631,21.5790862 C12.539842,21.5784614 11.0695943,21.1777231 9.78700186,20.4201751 L9.48193537,20.2399919 L6.32018355,21.0654511 L7.16412521,17.9975304 L6.96546267,17.6830148 C6.12924542,16.3592521 5.68755317,14.829353 5.68822828,13.2585053 C5.69006361,8.67452719 9.43761648,4.94518173 14.0455737,4.94518173 C16.2768703,4.94604684 18.3743412,5.81197399 19.9515722,7.38339842 C21.5288031,8.95487092 22.3969319,11.0437273 22.3960636,13.2651859 C22.3941801,17.8494523 18.6466755,21.5790862 14.0422425,21.5790862 M21.1519961,6.18930618 C19.2543946,4.29860806 16.7308251,3.25687131 14.042146,3.25581395 C8.50228522,3.25581395 3.99344202,7.74270749 3.99126953,13.2578324 C3.99049709,15.0207826 4.45333495,16.7416308 5.33285725,18.2585052 L3.90697674,23.4418605 L9.23509172,22.0509557 C10.7031186,22.8478182 12.3559524,23.267733 14.0381389,23.268454 L14.0422425,23.268454 L14.0422908,23.268454 C19.5815723,23.268454 24.0908017,18.7809837 24.0930233,13.2658107 C24.0940846,10.5931011 23.0495975,8.07995624 21.1519961,6.18930618" id="Fill-4" fill="#FFFFFF"></path>
                                </g>
                            </g>
                        </g>
                    </g>
                </g>
            </g>
        </g>
    </g>
</svg>